<?xml version="1.0" encoding="UTF-8"?>
<!DOCTYPE svg PUBLIC "-//W3C//DTD SVG 1.1//EN" "http://www.w3.org/Graphics/SVG/1.1/DTD/svg11.dtd">
<!-- Creator: CorelDRAW X6 -->
<svg xmlns="http://www.w3.org/2000/svg" xml:space="preserve" width="12.9722in" height="9.44444in" version="1.1" style="shape-rendering:geometricPrecision; text-rendering:geometricPrecision; image-rendering:optimizeQuality; fill-rule:evenodd; clip-rule:evenodd"
viewBox="0 0 12972 9444"
 xmlns:xlink="http://www.w3.org/1999/xlink">
 <defs>
  <style type="text/css">
   <![CDATA[
    .fil0 {fill:black;fill-rule:nonzero}
   ]]>
  </style>
 </defs>
 <g id="Layer_x0020_1">
  <metadata id="CorelCorpID_0Corel-Layer"/>
  <path class="fil0" d="M5476 475c116,-87 213,-169 316,-179 103,-11 1840,-184 2087,-216 247,-32 371,227 290,395 -37,78 -1044,543 -2337,2034 -1293,1490 -3013,3759 -3047,3796 -34,37 -69,77 -129,83 -60,7 -2204,252 -2385,277 -135,19 -228,-78 -249,-166 44,156 214,158 279,63 65,-95 1502,-2362 2709,-3790 1207,-1428 2351,-2210 2467,-2297zm4444 0c116,-87 206,-167 316,-179 109,-12 1840,-184 2087,-216 247,-32 371,227 290,395 -37,78 -1044,543 -2337,2034 -1293,1490 -3013,3759 -3047,3796 -34,37 -69,77 -129,83 -60,7 -2204,252 -2385,277 -135,19 -228,-78 -249,-166 44,156 214,158 279,63 65,-95 1502,-2362 2709,-3790 1207,-1428 2351,-2210 2467,-2297z"/>
  <path class="fil0" d="M10381 494c-42,83 -1354,2599 -1418,4663 -64,2063 161,3212 719,3866 558,654 2792,438 2624,0 -168,-438 -965,-1334 -835,-3906 130,-2572 1397,-4681 1463,-4814 66,-133 -44,-296 -193,-280 -148,16 -2501,275 -2501,275 116,-16 183,113 141,197zm-4448 -2c50,-103 -38,-208 -141,-197 0,0 381,-41 459,-49 146,-15 1880,-207 2041,-224 161,-17 262,152 198,281 -64,129 -745,1510 -1134,2872 -388,1362 -408,2982 -411,3070 -3,88 70,152 156,143 0,0 -363,43 -442,52 -154,18 -1795,203 -1955,225 -160,22 -262,-113 -259,-225 3,-112 14,-1596 348,-2990 318,-1324 1027,-2725 1140,-2957zm-4431 -26c52,-107 159,-204 305,-220 146,-15 1908,-207 2069,-224 161,-17 262,152 198,281 -64,129 -773,1510 -1161,2872 -388,1362 -408,2982 -411,3070 -3,88 70,152 156,143 0,0 -363,43 -442,52 -154,18 -1795,203 -1955,225 -160,22 -262,-113 -259,-225 3,-112 14,-1596 348,-2990 335,-1394 1101,-2877 1153,-2984z"/>
 </g>
</svg>
